<svg width="536" height="216" viewBox="0 0 536 216" fill="none" xmlns="http://www.w3.org/2000/svg">
<g clip-path="url(#clip0_3_108)">
<rect width="536" height="216" fill="url(#paint0_linear_3_108)"/>
<mask id="mask0_3_108" style="mask-type:alpha" maskUnits="userSpaceOnUse" x="0" y="0" width="536" height="216">
<rect width="536" height="216" fill="#D9D9D9"/>
</mask>
<g mask="url(#mask0_3_108)">
<circle cx="228" cy="116" r="50" fill="white" fill-opacity="0.2"/>
<circle cx="228" cy="116" r="62" fill="white" fill-opacity="0.2"/>
<circle cx="228" cy="116" r="74" fill="white" fill-opacity="0.2"/>
<circle cx="228" cy="116" r="32" fill="#F9CB86"/>
<path fill-rule="evenodd" clip-rule="evenodd" d="M227.822 76.0004C227.881 76.0001 227.941 76 228 76C228.059 76 228.119 76.0001 228.178 76.0004C229.122 76.0045 229.884 76.7732 229.88 77.7172C229.876 78.6613 229.107 79.4233 228.163 79.4192C228.109 79.4189 228.054 79.4188 228 79.4188C227.946 79.4188 227.891 79.4189 227.837 79.4192C226.893 79.4233 226.124 78.6613 226.12 77.7172C226.116 76.7732 226.878 76.0045 227.822 76.0004ZM210.482 81.8995C210.951 82.7188 210.668 83.7632 209.848 84.2324C209.754 84.2862 209.661 84.3404 209.567 84.3949C208.752 84.8714 207.705 84.5969 207.229 83.7818C206.753 82.9668 207.027 81.9198 207.842 81.4434C207.944 81.3837 208.047 81.3244 208.149 81.2656C208.969 80.7965 210.013 81.0803 210.482 81.8995ZM245.518 81.8995C245.987 81.0803 247.031 80.7965 247.851 81.2656C247.953 81.3244 248.056 81.3837 248.158 81.4434C248.973 81.9198 249.247 82.9668 248.771 83.7818C248.295 84.5969 247.248 84.8714 246.433 84.3949C246.339 84.3404 246.246 84.2862 246.152 84.2324C245.332 83.7632 245.049 82.7188 245.518 81.8995ZM195.782 95.229C196.597 95.7054 196.871 96.7524 196.395 97.5674C196.34 97.6608 196.286 97.7545 196.232 97.8484C195.763 98.6677 194.719 98.9515 193.9 98.4823C193.08 98.0131 192.796 96.9687 193.266 96.1494C193.324 96.0467 193.384 95.9443 193.443 95.8421C193.92 95.0271 194.967 94.7526 195.782 95.229ZM260.218 95.229C261.033 94.7526 262.08 95.0271 262.557 95.8422C262.616 95.9443 262.676 96.0467 262.734 96.1494C263.204 96.9687 262.92 98.0131 262.101 98.4823C261.281 98.9515 260.237 98.6677 259.768 97.8484C259.714 97.7545 259.66 97.6608 259.605 97.5674C259.129 96.7524 259.403 95.7054 260.218 95.229ZM189.717 114.12C190.661 114.124 191.423 114.893 191.419 115.837C191.419 115.891 191.419 115.946 191.419 116C191.419 116.054 191.419 116.109 191.419 116.163C191.423 117.107 190.661 117.876 189.717 117.88C188.773 117.884 188.005 117.122 188 116.178C188 116.119 188 116.059 188 116C188 115.941 188 115.881 188 115.822C188.005 114.878 188.773 114.116 189.717 114.12ZM266.283 114.12C267.227 114.116 267.995 114.878 268 115.822C268 115.881 268 115.941 268 116C268 116.059 268 116.119 268 116.178C267.995 117.122 267.227 117.884 266.283 117.88C265.339 117.876 264.577 117.107 264.581 116.163C264.581 116.109 264.581 116.054 264.581 116C264.581 115.946 264.581 115.891 264.581 115.837C264.577 114.893 265.339 114.124 266.283 114.12ZM193.9 133.518C194.719 133.049 195.763 133.332 196.232 134.152C196.286 134.246 196.34 134.339 196.395 134.433C196.871 135.248 196.597 136.295 195.782 136.771C194.967 137.247 193.92 136.973 193.443 136.158C193.384 136.056 193.324 135.953 193.266 135.851C192.796 135.031 193.08 133.987 193.9 133.518ZM262.101 133.518C262.92 133.987 263.204 135.031 262.734 135.851C262.676 135.953 262.616 136.056 262.557 136.158C262.08 136.973 261.033 137.247 260.218 136.771C259.403 136.295 259.129 135.248 259.605 134.433C259.66 134.339 259.714 134.246 259.768 134.152C260.237 133.332 261.281 133.049 262.101 133.518ZM207.229 148.218C207.705 147.403 208.752 147.129 209.567 147.605C209.661 147.66 209.754 147.714 209.848 147.768C210.668 148.237 210.951 149.281 210.482 150.101C210.013 150.92 208.969 151.204 208.149 150.734C208.047 150.676 207.944 150.616 207.842 150.557C207.027 150.08 206.753 149.033 207.229 148.218ZM248.771 148.218C249.247 149.033 248.973 150.08 248.158 150.557C248.056 150.616 247.953 150.676 247.851 150.734C247.031 151.204 245.987 150.92 245.518 150.101C245.049 149.281 245.332 148.237 246.152 147.768C246.246 147.714 246.339 147.66 246.433 147.605C247.248 147.129 248.295 147.403 248.771 148.218ZM226.12 154.283C226.124 153.339 226.893 152.577 227.837 152.581C227.891 152.581 227.946 152.581 228 152.581C228.054 152.581 228.109 152.581 228.163 152.581C229.107 152.577 229.876 153.339 229.88 154.283C229.884 155.227 229.122 155.995 228.178 156C228.144 156 228.109 156 228.074 156C228.049 156 228.025 156 228 156C227.941 156 227.881 156 227.822 156C226.878 155.995 226.116 155.227 226.12 154.283Z" fill="#F9CB86"/>
<path fill-rule="evenodd" clip-rule="evenodd" d="M224.582 119.854C224.502 119.533 224.176 119.338 223.855 119.418C223.533 119.498 223.338 119.824 223.418 120.146L224 120C223.418 120.146 223.418 120.145 223.418 120.146L223.42 120.152L223.423 120.164L223.433 120.204C223.443 120.238 223.457 120.286 223.475 120.346C223.511 120.466 223.566 120.635 223.641 120.836C223.791 121.236 224.027 121.774 224.366 122.318C225.035 123.388 226.194 124.6 228 124.6C229.806 124.6 230.965 123.388 231.634 122.318C231.974 121.774 232.209 121.236 232.359 120.836C232.434 120.635 232.489 120.466 232.525 120.346C232.544 120.286 232.557 120.238 232.567 120.204L232.577 120.164L232.581 120.152L232.582 120.146C232.582 120.146 232.582 120.146 232 120L232.582 120.146C232.662 119.825 232.467 119.498 232.146 119.418C231.824 119.338 231.499 119.533 231.418 119.854M231.418 119.854L231.417 119.859L231.41 119.886C231.403 119.91 231.392 119.948 231.377 119.998C231.347 120.096 231.3 120.24 231.235 120.414C231.104 120.764 230.902 121.226 230.616 121.682C230.035 122.612 229.194 123.4 228 123.4C226.806 123.4 225.965 122.612 225.384 121.682C225.099 121.226 224.896 120.764 224.765 120.414C224.7 120.24 224.653 120.096 224.623 119.998C224.608 119.948 224.597 119.91 224.591 119.886L224.583 119.859L224.582 119.854C224.582 119.854 224.582 119.854 224.582 119.854" fill="#393939"/>
<circle cx="211.429" cy="115.429" r="3.42857" fill="#393939"/>
<circle cx="212.457" cy="114.4" r="1.02857" fill="white"/>
<circle cx="244.571" cy="115.429" r="3.42857" fill="#393939"/>
<circle cx="245.6" cy="114.4" r="1.02857" fill="white"/>
<ellipse cx="451" cy="219" rx="222" ry="76" fill="url(#paint1_linear_3_108)"/>
<path d="M379.907 215.5C398.407 206.5 391.407 198.5 379.907 187C373.664 180.757 364.612 175.082 357.407 171.193C423.407 171.193 452.407 187 464.907 198C476.585 208.277 480.407 226 464.907 238C439.746 257.479 319.407 259.5 291.407 269C269.007 276.6 282.074 304.5 291.407 317.5C251.407 321.5 171.407 327.1 171.407 317.5C171.407 305.5 159.031 281.261 190.407 259.5C221.407 238 361.407 224.5 379.907 215.5Z" fill="url(#paint2_linear_3_108)"/>
<path d="M410.5 212C410.5 240.443 301.04 248 176.5 248C51.9598 248 -49 224.943 -49 196.5C-49 168.057 46.9598 132.5 171.5 132.5C296.04 132.5 410.5 183.557 410.5 212Z" fill="url(#paint3_linear_3_108)"/>
<line x1="130.5" y1="77" x2="130.5" y2="185" stroke="#333333" stroke-width="3"/>
<path d="M146 122.567C146 154.527 139.284 173 131 173C122.716 173 116 154.527 116 122.567C116 90.6072 131 55 131 55C131 55 146 90.6072 146 122.567Z" fill="url(#paint4_linear_3_108)"/>
<line x1="174" y1="64.7692" x2="174" y2="152" stroke="#333333" stroke-width="3"/>
<path d="M186.231 101.573C186.231 127.387 180.807 142.308 174.115 142.308C167.424 142.308 162 127.387 162 101.573C162 75.7597 174.115 47 174.115 47C174.115 47 186.231 75.7597 186.231 101.573Z" fill="url(#paint5_linear_3_108)"/>
<line x1="461.5" y1="95.8461" x2="461.5" y2="154" stroke="#333333" stroke-width="3"/>
<path d="M469.154 120.382C469.154 137.591 465.538 147.538 461.077 147.538C456.616 147.538 453 137.591 453 120.382C453 103.173 461.077 84 461.077 84C461.077 84 469.154 103.173 469.154 120.382Z" fill="url(#paint6_linear_3_108)"/>
<path opacity="0.8" d="M386.627 78.1603C386.665 78.091 386.765 78.091 386.803 78.1603L388.476 81.2184C388.49 81.2447 388.516 81.2631 388.545 81.2687L391.971 81.9151C392.048 81.9297 392.079 82.0244 392.025 82.0819L389.634 84.6183C389.613 84.6401 389.603 84.67 389.607 84.6997L390.051 88.1573C390.061 88.2357 389.98 88.2942 389.909 88.2604L386.758 86.7699C386.731 86.7571 386.699 86.7571 386.672 86.7699L383.521 88.2604C383.45 88.2942 383.369 88.2357 383.379 88.1573L383.823 84.6997C383.827 84.67 383.817 84.6401 383.796 84.6183L381.405 82.0819C381.351 82.0244 381.382 81.9297 381.459 81.9151L384.885 81.2687C384.914 81.2631 384.94 81.2447 384.954 81.2184L386.627 78.1603Z" fill="#F9F486" fill-opacity="0.7"/>
</g>
<path fill-rule="evenodd" clip-rule="evenodd" d="M47.45 83.65C42.2309 83.65 38 79.4191 38 74.2C38 68.9809 42.2309 64.75 47.45 64.75C48.5657 64.75 49.6362 64.9433 50.6299 65.2984C51.1612 56.2079 58.7013 49 67.925 49C75.0022 49 81.0883 53.2435 83.7776 59.3249C85.2088 58.7602 86.7682 58.45 88.4 58.45C95.3588 58.45 101 64.0912 101 71.05C101 78.0088 95.3588 83.65 88.4 83.65H67.925H47.45Z" fill="#F3F4FF" fill-opacity="0.3"/>
<path fill-rule="evenodd" clip-rule="evenodd" d="M456.45 55.65C451.231 55.65 447 51.4191 447 46.2C447 40.9809 451.231 36.75 456.45 36.75C457.566 36.75 458.636 36.9433 459.63 37.2984C460.161 28.2079 467.701 21 476.925 21C484.002 21 490.088 25.2435 492.778 31.3249C494.209 30.7602 495.768 30.45 497.4 30.45C504.359 30.45 510 36.0912 510 43.05C510 50.0088 504.359 55.65 497.4 55.65H476.925H456.45Z" fill="#F3F4FF" fill-opacity="0.3"/>
</g>
<defs>
<linearGradient id="paint0_linear_3_108" x1="268" y1="0" x2="268" y2="216" gradientUnits="userSpaceOnUse">
<stop stop-color="#4B42AD"/>
<stop offset="0.59375" stop-color="#AF4FB1"/>
<stop offset="0.984375" stop-color="#D52298"/>
</linearGradient>
<linearGradient id="paint1_linear_3_108" x1="446.893" y1="159.45" x2="446.893" y2="295" gradientUnits="userSpaceOnUse">
<stop stop-color="#CE99E7"/>
<stop offset="1" stop-color="#8E4BB0"/>
</linearGradient>
<linearGradient id="paint2_linear_3_108" x1="322.074" y1="167" x2="322.074" y2="322.801" gradientUnits="userSpaceOnUse">
<stop offset="0.046875" stop-color="#EBB8EC"/>
<stop offset="0.270833" stop-color="#AF4FB1"/>
</linearGradient>
<linearGradient id="paint3_linear_3_108" x1="176.5" y1="145" x2="176.5" y2="248" gradientUnits="userSpaceOnUse">
<stop stop-color="#CE99E7"/>
<stop offset="1" stop-color="#8E4BB0"/>
</linearGradient>
<linearGradient id="paint4_linear_3_108" x1="131" y1="55" x2="131" y2="173" gradientUnits="userSpaceOnUse">
<stop stop-color="#2F2596"/>
<stop offset="1" stop-color="#AF4FB1"/>
</linearGradient>
<linearGradient id="paint5_linear_3_108" x1="174.115" y1="47" x2="174.115" y2="142.308" gradientUnits="userSpaceOnUse">
<stop stop-color="#2F2596"/>
<stop offset="1" stop-color="#AF4FB1"/>
</linearGradient>
<linearGradient id="paint6_linear_3_108" x1="461.077" y1="84" x2="461.077" y2="147.538" gradientUnits="userSpaceOnUse">
<stop stop-color="#2F2596"/>
<stop offset="1" stop-color="#AF4FB1"/>
</linearGradient>
<clipPath id="clip0_3_108">
<rect width="536" height="216" fill="white"/>
</clipPath>
</defs>
</svg>
