<svg width="536" height="216" viewBox="0 0 536 216" fill="none" xmlns="http://www.w3.org/2000/svg">
<g clip-path="url(#clip0_3_66)">
<rect width="536" height="216" fill="url(#paint0_linear_3_66)"/>
<mask id="mask0_3_66" style="mask-type:alpha" maskUnits="userSpaceOnUse" x="0" y="0" width="536" height="216">
<rect width="536" height="216" fill="#D9D9D9"/>
</mask>
<g mask="url(#mask0_3_66)">
<circle cx="288" cy="53" r="50" fill="white" fill-opacity="0.2"/>
<circle cx="288" cy="53" r="62" fill="white" fill-opacity="0.2"/>
<circle cx="288" cy="53" r="74" fill="white" fill-opacity="0.2"/>
<circle cx="288" cy="53" r="32" fill="#F9F486"/>
<path fill-rule="evenodd" clip-rule="evenodd" d="M287.822 13.0004C287.881 13.0001 287.941 13 288 13C288.059 13 288.119 13.0001 288.178 13.0004C289.122 13.0045 289.884 13.7732 289.88 14.7172C289.876 15.6613 289.107 16.4233 288.163 16.4192C288.109 16.4189 288.054 16.4188 288 16.4188C287.946 16.4188 287.891 16.4189 287.837 16.4192C286.893 16.4233 286.124 15.6613 286.12 14.7172C286.116 13.7732 286.878 13.0045 287.822 13.0004ZM270.482 18.8995C270.951 19.7188 270.668 20.7632 269.848 21.2324C269.754 21.2862 269.661 21.3404 269.567 21.3949C268.752 21.8714 267.705 21.5969 267.229 20.7818C266.753 19.9668 267.027 18.9198 267.842 18.4434C267.944 18.3837 268.047 18.3244 268.149 18.2656C268.969 17.7965 270.013 18.0803 270.482 18.8995ZM305.518 18.8995C305.987 18.0803 307.031 17.7965 307.851 18.2656C307.953 18.3244 308.056 18.3837 308.158 18.4434C308.973 18.9198 309.247 19.9668 308.771 20.7818C308.295 21.5969 307.248 21.8714 306.433 21.3949C306.339 21.3404 306.246 21.2862 306.152 21.2324C305.332 20.7632 305.049 19.7188 305.518 18.8995ZM255.782 32.229C256.597 32.7054 256.871 33.7524 256.395 34.5674C256.34 34.6608 256.286 34.7545 256.232 34.8484C255.763 35.6677 254.719 35.9515 253.9 35.4823C253.08 35.0131 252.796 33.9687 253.266 33.1494C253.324 33.0467 253.384 32.9443 253.443 32.8421C253.92 32.0271 254.967 31.7526 255.782 32.229ZM320.218 32.229C321.033 31.7526 322.08 32.0271 322.557 32.8422C322.616 32.9443 322.676 33.0467 322.734 33.1494C323.204 33.9687 322.92 35.0131 322.101 35.4823C321.281 35.9515 320.237 35.6677 319.768 34.8484C319.714 34.7545 319.66 34.6608 319.605 34.5674C319.129 33.7524 319.403 32.7054 320.218 32.229ZM249.717 51.1198C250.661 51.1239 251.423 51.8926 251.419 52.8366C251.419 52.8911 251.419 52.9455 251.419 53C251.419 53.0545 251.419 53.1089 251.419 53.1633C251.423 54.1074 250.661 54.8761 249.717 54.8802C248.773 54.8843 248.005 54.1224 248 53.1783C248 53.1189 248 53.0595 248 53C248 52.9405 248 52.8811 248 52.8217C248.005 51.8777 248.773 51.1157 249.717 51.1198ZM326.283 51.1198C327.227 51.1157 327.995 51.8777 328 52.8217C328 52.8811 328 52.9405 328 53C328 53.0595 328 53.1189 328 53.1783C327.995 54.1224 327.227 54.8843 326.283 54.8802C325.339 54.8761 324.577 54.1074 324.581 53.1634C324.581 53.1089 324.581 53.0545 324.581 53C324.581 52.9455 324.581 52.8911 324.581 52.8367C324.577 51.8926 325.339 51.1239 326.283 51.1198ZM253.9 70.5177C254.719 70.0485 255.763 70.3323 256.232 71.1516C256.286 71.2455 256.34 71.3392 256.395 71.4326C256.871 72.2476 256.597 73.2946 255.782 73.771C254.967 74.2474 253.92 73.9729 253.443 73.1579C253.384 73.0557 253.324 72.9533 253.266 72.8506C252.796 72.0313 253.08 70.9869 253.9 70.5177ZM322.101 70.5177C322.92 70.9869 323.204 72.0313 322.734 72.8506C322.676 72.9533 322.616 73.0557 322.557 73.1579C322.08 73.9729 321.033 74.2474 320.218 73.771C319.403 73.2946 319.129 72.2476 319.605 71.4326C319.66 71.3392 319.714 71.2455 319.768 71.1516C320.237 70.3323 321.281 70.0485 322.101 70.5177ZM267.229 85.2182C267.705 84.4031 268.752 84.1286 269.567 84.6051C269.661 84.6596 269.754 84.7138 269.848 84.7676C270.668 85.2368 270.951 86.2813 270.482 87.1005C270.013 87.9197 268.969 88.2035 268.149 87.7344C268.047 87.6756 267.944 87.6163 267.842 87.5566C267.027 87.0802 266.753 86.0332 267.229 85.2182ZM308.771 85.2182C309.247 86.0332 308.973 87.0802 308.158 87.5566C308.056 87.6163 307.953 87.6756 307.851 87.7344C307.031 88.2035 305.987 87.9197 305.518 87.1005C305.049 86.2813 305.332 85.2368 306.152 84.7676C306.246 84.7138 306.339 84.6596 306.433 84.6051C307.248 84.1286 308.295 84.4031 308.771 85.2182ZM286.12 91.2828C286.124 90.3387 286.893 89.5767 287.837 89.5808C287.891 89.5811 287.946 89.5812 288 89.5812C288.054 89.5812 288.109 89.5811 288.163 89.5808C289.107 89.5767 289.876 90.3387 289.88 91.2828C289.884 92.2268 289.122 92.9955 288.178 92.9996C288.144 92.9998 288.109 92.9999 288.074 92.9999C288.049 93 288.025 93 288 93C287.941 93 287.881 92.9999 287.822 92.9996C286.878 92.9955 286.116 92.2268 286.12 91.2828Z" fill="#F9F486"/>
<path fill-rule="evenodd" clip-rule="evenodd" d="M284.582 56.8541C284.502 56.5329 284.176 56.3376 283.855 56.4179C283.533 56.4983 283.338 56.8241 283.418 57.1455L284 57C283.418 57.1455 283.418 57.1453 283.418 57.1455L283.42 57.1517L283.423 57.1636L283.433 57.204C283.443 57.2381 283.457 57.2861 283.475 57.3462C283.511 57.4661 283.566 57.6347 283.641 57.8357C283.791 58.2358 284.027 58.7745 284.366 59.318C285.035 60.388 286.194 61.6 288 61.6C289.806 61.6 290.965 60.388 291.634 59.318C291.974 58.7745 292.209 58.2358 292.359 57.8357C292.434 57.6347 292.489 57.4661 292.525 57.3462C292.544 57.2861 292.557 57.2381 292.567 57.204L292.577 57.1636L292.581 57.1517L292.582 57.1465C292.582 57.1463 292.582 57.1455 292 57L292.582 57.1465C292.662 56.825 292.467 56.4983 292.146 56.4179C291.824 56.3376 291.499 56.5329 291.418 56.8541M291.418 56.8541L291.417 56.8594L291.41 56.8858C291.403 56.9104 291.392 56.9483 291.377 56.9976C291.347 57.0964 291.3 57.2404 291.235 57.4143C291.104 57.7642 290.902 58.2255 290.616 58.682C290.035 59.612 289.194 60.4 288 60.4C286.806 60.4 285.965 59.612 285.384 58.682C285.099 58.2255 284.896 57.7642 284.765 57.4143C284.7 57.2404 284.653 57.0964 284.623 56.9976C284.608 56.9483 284.597 56.9104 284.591 56.8858L284.583 56.8594L284.582 56.8541C284.582 56.8542 284.582 56.8538 284.582 56.8541" fill="#393939"/>
<circle cx="271.429" cy="52.4286" r="3.42857" fill="#393939"/>
<circle cx="272.457" cy="51.4" r="1.02857" fill="white"/>
<circle cx="304.571" cy="52.4286" r="3.42857" fill="#393939"/>
<circle cx="305.6" cy="51.4" r="1.02857" fill="white"/>
<ellipse cx="451" cy="219" rx="222" ry="76" fill="url(#paint1_linear_3_66)"/>
<path d="M379.907 215.5C398.407 206.5 391.407 198.5 379.907 187C373.664 180.757 364.612 175.082 357.407 171.193C423.407 171.193 452.407 187 464.907 198C476.585 208.277 480.407 226 464.907 238C439.746 257.479 319.407 259.5 291.407 269C269.007 276.6 282.074 304.5 291.407 317.5C251.407 321.5 171.407 327.1 171.407 317.5C171.407 305.5 159.031 281.261 190.407 259.5C221.407 238 361.407 224.5 379.907 215.5Z" fill="url(#paint2_linear_3_66)"/>
<path d="M410.5 212C410.5 240.443 301.04 248 176.5 248C51.9598 248 -49 224.943 -49 196.5C-49 168.057 46.9598 132.5 171.5 132.5C296.04 132.5 410.5 183.557 410.5 212Z" fill="url(#paint3_linear_3_66)"/>
<line x1="130.5" y1="77" x2="130.5" y2="185" stroke="#69533A" stroke-width="3"/>
<path d="M146 122.567C146 154.527 139.284 173 131 173C122.716 173 116 154.527 116 122.567C116 90.6072 131 55 131 55C131 55 146 90.6072 146 122.567Z" fill="url(#paint4_linear_3_66)"/>
<line x1="174" y1="64.7692" x2="174" y2="152" stroke="#69533A" stroke-width="3"/>
<path d="M186.231 101.573C186.231 127.387 180.807 142.308 174.115 142.308C167.424 142.308 162 127.387 162 101.573C162 75.7597 174.115 47 174.115 47C174.115 47 186.231 75.7597 186.231 101.573Z" fill="url(#paint5_linear_3_66)"/>
<line x1="461.5" y1="95.8462" x2="461.5" y2="154" stroke="#69533A" stroke-width="3"/>
<path d="M469.154 120.382C469.154 137.591 465.538 147.538 461.077 147.538C456.616 147.538 453 137.591 453 120.382C453 103.173 461.077 84 461.077 84C461.077 84 469.154 103.173 469.154 120.382Z" fill="url(#paint6_linear_3_66)"/>
</g>
<path fill-rule="evenodd" clip-rule="evenodd" d="M47.45 83.65C42.2309 83.65 38 79.4191 38 74.2C38 68.9809 42.2309 64.75 47.45 64.75C48.5657 64.75 49.6362 64.9433 50.6299 65.2984C51.1612 56.2079 58.7013 49 67.925 49C75.0022 49 81.0883 53.2435 83.7776 59.3249C85.2088 58.7602 86.7682 58.45 88.4 58.45C95.3588 58.45 101 64.0912 101 71.05C101 78.0088 95.3588 83.65 88.4 83.65H67.925H47.45Z" fill="#F3F4FF" fill-opacity="0.3"/>
<path fill-rule="evenodd" clip-rule="evenodd" d="M456.45 55.65C451.231 55.65 447 51.4191 447 46.2C447 40.9809 451.231 36.75 456.45 36.75C457.566 36.75 458.636 36.9433 459.63 37.2984C460.161 28.2079 467.701 21 476.925 21C484.002 21 490.088 25.2435 492.778 31.3249C494.209 30.7602 495.768 30.45 497.4 30.45C504.359 30.45 510 36.0912 510 43.05C510 50.0088 504.359 55.65 497.4 55.65H476.925H456.45Z" fill="#F3F4FF" fill-opacity="0.3"/>
</g>
<defs>
<linearGradient id="paint0_linear_3_66" x1="268" y1="0" x2="268" y2="216" gradientUnits="userSpaceOnUse">
<stop stop-color="#27B5FB"/>
<stop offset="1" stop-color="#CDF3FE"/>
</linearGradient>
<linearGradient id="paint1_linear_3_66" x1="451" y1="143" x2="451" y2="295" gradientUnits="userSpaceOnUse">
<stop stop-color="#339F61"/>
<stop offset="1" stop-color="#69C991"/>
</linearGradient>
<linearGradient id="paint2_linear_3_66" x1="322.074" y1="167" x2="322.074" y2="322.801" gradientUnits="userSpaceOnUse">
<stop offset="0.046875" stop-color="#EDECD3"/>
<stop offset="0.354167" stop-color="#BDBB88"/>
</linearGradient>
<linearGradient id="paint3_linear_3_66" x1="176.5" y1="145" x2="176.5" y2="248" gradientUnits="userSpaceOnUse">
<stop stop-color="#58BB82"/>
<stop offset="1" stop-color="#69C991"/>
</linearGradient>
<linearGradient id="paint4_linear_3_66" x1="131" y1="55" x2="131" y2="173" gradientUnits="userSpaceOnUse">
<stop offset="0.12223" stop-color="#4CA070"/>
<stop offset="0.550814" stop-color="#67C88F"/>
<stop offset="1" stop-color="#7BDAA3"/>
</linearGradient>
<linearGradient id="paint5_linear_3_66" x1="174.115" y1="47" x2="174.115" y2="142.308" gradientUnits="userSpaceOnUse">
<stop offset="0.12223" stop-color="#4CA070"/>
<stop offset="0.550814" stop-color="#67C88F"/>
<stop offset="1" stop-color="#7BDAA3"/>
</linearGradient>
<linearGradient id="paint6_linear_3_66" x1="461.077" y1="84" x2="461.077" y2="147.538" gradientUnits="userSpaceOnUse">
<stop offset="0.12223" stop-color="#4CA070"/>
<stop offset="0.550814" stop-color="#67C88F"/>
<stop offset="1" stop-color="#7BDAA3"/>
</linearGradient>
<clipPath id="clip0_3_66">
<rect width="536" height="216" fill="white"/>
</clipPath>
</defs>
</svg>
