<svg width="536" height="216" viewBox="0 0 536 216" fill="none" xmlns="http://www.w3.org/2000/svg">
<g clip-path="url(#clip0_3_150)">
<rect width="536" height="216" fill="url(#paint0_linear_3_150)"/>
<mask id="mask0_3_150" style="mask-type:alpha" maskUnits="userSpaceOnUse" x="0" y="0" width="536" height="216">
<rect width="536" height="216" fill="#D9D9D9"/>
</mask>
<g mask="url(#mask0_3_150)">
<circle cx="288" cy="53" r="50" fill="white" fill-opacity="0.05"/>
<circle cx="288" cy="53" r="62" fill="white" fill-opacity="0.05"/>
<circle cx="288" cy="53" r="74" fill="white" fill-opacity="0.05"/>
<path fill-rule="evenodd" clip-rule="evenodd" d="M314.092 69.2567C314.13 69.1903 314.082 69.1071 314.005 69.1066C302.282 69.0373 290.905 62.9238 284.619 52.0376C278.334 41.1515 278.728 28.2419 284.53 18.0543C284.568 17.9875 284.52 17.9041 284.443 17.9045C278.7 17.9288 272.885 19.4049 267.556 22.4821C251.232 31.9063 245.64 52.7785 255.064 69.1016C264.488 85.4246 285.36 91.0173 301.683 81.5932C307.013 78.516 311.199 74.2182 314.092 69.2567Z" fill="#F9F486"/>
<path fill-rule="evenodd" clip-rule="evenodd" d="M265.793 56.2876C265.716 55.9816 265.406 55.7956 265.1 55.8721C264.793 55.9487 264.607 56.2589 264.684 56.5651L265.238 56.4265C264.684 56.5651 264.684 56.5649 264.684 56.5651L264.685 56.5709L264.688 56.5823L264.699 56.6208C264.708 56.6532 264.721 56.699 264.738 56.7562C264.773 56.8704 264.825 57.0309 264.897 57.2224C265.04 57.6034 265.263 58.1165 265.587 58.6341C266.224 59.6531 267.327 60.8074 269.048 60.8074C270.768 60.8074 271.872 59.6531 272.509 58.6341C272.832 58.1165 273.056 57.6034 273.199 57.2224C273.271 57.0309 273.323 56.8704 273.358 56.7562C273.375 56.699 273.388 56.6532 273.397 56.6208L273.407 56.5823L273.41 56.5709L273.411 56.566C273.411 56.5658 273.412 56.5651 272.857 56.4265L273.411 56.566C273.488 56.2598 273.302 55.9487 272.996 55.8721C272.69 55.7956 272.38 55.9816 272.303 56.2876M272.303 56.2876L272.302 56.2925L272.295 56.3177C272.288 56.3411 272.278 56.3772 272.264 56.4242C272.235 56.5183 272.191 56.6554 272.129 56.8211C272.004 57.1543 271.811 57.5936 271.539 58.0284C270.986 58.9141 270.184 59.6646 269.048 59.6646C267.911 59.6646 267.11 58.9141 266.556 58.0284C266.284 57.5936 266.092 57.1543 265.967 56.8211C265.905 56.6554 265.86 56.5183 265.832 56.4242C265.817 56.3772 265.807 56.3411 265.801 56.3177L265.794 56.2925L265.793 56.2876C265.793 56.2876 265.792 56.2873 265.793 56.2876" fill="#393939"/>
<circle cx="260.313" cy="51.5012" r="3.26531" fill="#393939"/>
<circle cx="261.293" cy="50.5216" r="0.979592" fill="white"/>
<circle cx="279.361" cy="51.5012" r="3.26531" fill="#393939"/>
<circle cx="280.34" cy="50.5216" r="0.979592" fill="white"/>
<path d="M412.627 17.92C412.664 17.8507 412.764 17.8507 412.802 17.92L414.475 20.9777C414.489 21.004 414.515 21.0224 414.544 21.028L417.969 21.6743C418.047 21.6889 418.078 21.7837 418.024 21.8412L415.633 24.3772C415.612 24.399 415.602 24.4289 415.606 24.4586L416.05 27.9157C416.06 27.9941 415.979 28.0526 415.908 28.0188L412.757 26.5285C412.73 26.5157 412.699 26.5157 412.672 26.5285L409.521 28.0188C409.449 28.0526 409.369 27.9941 409.379 27.9157L409.822 24.4586C409.826 24.4289 409.817 24.399 409.796 24.3772L407.405 21.8412C407.351 21.7837 407.382 21.6889 407.459 21.6743L410.884 21.028C410.914 21.0224 410.939 21.004 410.953 20.9777L412.627 17.92Z" fill="#F9F486"/>
<path d="M107.627 27.1603C107.664 27.091 107.764 27.091 107.802 27.1603L109.475 30.218C109.489 30.2443 109.515 30.2627 109.544 30.2683L112.969 30.9146C113.047 30.9292 113.078 31.0239 113.024 31.0815L110.633 33.6175C110.612 33.6393 110.602 33.6691 110.606 33.6988L111.05 37.156C111.06 37.2344 110.979 37.2929 110.908 37.2591L107.757 35.7688C107.73 35.756 107.699 35.756 107.672 35.7688L104.521 37.2591C104.449 37.2929 104.369 37.2344 104.379 37.156L104.822 33.6988C104.826 33.6691 104.817 33.6393 104.796 33.6175L102.405 31.0815C102.351 31.0239 102.382 30.9292 102.459 30.9146L105.884 30.2683C105.914 30.2627 105.939 30.2443 105.953 30.218L107.627 27.1603Z" fill="#F9F486"/>
<path d="M47.4361 11.1603C47.474 11.091 47.5736 11.091 47.6115 11.1603L50.4736 16.391C50.488 16.4173 50.5134 16.4357 50.5428 16.4413L56.4019 17.5469C56.4796 17.5616 56.5103 17.6563 56.4561 17.7138L52.3659 22.0521C52.3453 22.0739 52.3356 22.1038 52.3395 22.1335L53.0985 28.0475C53.1086 28.1259 53.028 28.1844 52.9566 28.1506L47.5666 25.6012C47.5395 25.5884 47.5081 25.5884 47.4811 25.6012L42.0911 28.1506C42.0196 28.1844 41.9391 28.1259 41.9491 28.0475L42.7082 22.1335C42.712 22.1038 42.7023 22.0739 42.6817 22.0521L38.5915 17.7138C38.5373 17.6563 38.5681 17.5616 38.6457 17.5469L44.5048 16.4413C44.5342 16.4357 44.5596 16.4173 44.574 16.391L47.4361 11.1603Z" fill="#F9F486"/>
<path d="M386.627 78.1603C386.665 78.091 386.765 78.091 386.803 78.1603L388.476 81.2184C388.49 81.2447 388.516 81.2631 388.545 81.2687L391.971 81.9151C392.048 81.9297 392.079 82.0244 392.025 82.0819L389.634 84.6183C389.613 84.6401 389.603 84.67 389.607 84.6997L390.051 88.1573C390.061 88.2357 389.98 88.2942 389.909 88.2604L386.758 86.7699C386.731 86.7571 386.699 86.7571 386.672 86.7699L383.521 88.2604C383.45 88.2942 383.369 88.2357 383.379 88.1573L383.823 84.6997C383.827 84.67 383.817 84.6401 383.796 84.6183L381.405 82.0819C381.351 82.0244 381.382 81.9297 381.459 81.9151L384.885 81.2687C384.914 81.2631 384.94 81.2447 384.954 81.2184L386.627 78.1603Z" fill="#F9F486"/>
<path d="M519.627 56.1603C519.665 56.091 519.765 56.091 519.803 56.1603L521.476 59.2184C521.49 59.2447 521.516 59.2631 521.545 59.2687L524.971 59.9151C525.048 59.9297 525.079 60.0244 525.025 60.0819L522.634 62.6183C522.613 62.6401 522.603 62.67 522.607 62.6997L523.051 66.1573C523.061 66.2357 522.98 66.2942 522.909 66.2604L519.758 64.7699C519.731 64.7571 519.699 64.7571 519.672 64.7699L516.521 66.2604C516.45 66.2942 516.369 66.2357 516.379 66.1573L516.823 62.6997C516.827 62.67 516.817 62.6401 516.796 62.6183L514.405 60.0819C514.351 60.0244 514.382 59.9297 514.459 59.9151L517.885 59.2687C517.914 59.2631 517.94 59.2447 517.954 59.2184L519.627 56.1603Z" fill="#F9F486"/>
<ellipse cx="451" cy="219" rx="222" ry="76" fill="url(#paint1_linear_3_150)"/>
<path d="M379.907 215.5C398.407 206.5 391.407 198.5 379.907 187C373.664 180.757 364.612 175.082 357.407 171.193C423.407 171.193 452.407 187 464.907 198C476.585 208.277 480.407 226 464.907 238C439.746 257.479 319.407 259.5 291.407 269C269.007 276.6 282.074 304.5 291.407 317.5C251.407 321.5 171.407 327.1 171.407 317.5C171.407 305.5 159.031 281.261 190.407 259.5C221.407 238 361.407 224.5 379.907 215.5Z" fill="url(#paint2_linear_3_150)"/>
<path d="M410.5 212C410.5 240.443 301.04 248 176.5 248C51.9598 248 -49 224.943 -49 196.5C-49 168.057 46.9598 132.5 171.5 132.5C296.04 132.5 410.5 183.557 410.5 212Z" fill="url(#paint3_linear_3_150)"/>
<line x1="130.5" y1="77" x2="130.5" y2="185" stroke="#333333" stroke-width="3"/>
<path d="M146 122.567C146 154.527 139.284 173 131 173C122.716 173 116 154.527 116 122.567C116 90.6072 131 55 131 55C131 55 146 90.6072 146 122.567Z" fill="url(#paint4_linear_3_150)"/>
<line x1="174" y1="64.7692" x2="174" y2="152" stroke="#333333" stroke-width="3"/>
<path d="M186.231 101.573C186.231 127.387 180.807 142.308 174.115 142.308C167.424 142.308 162 127.387 162 101.573C162 75.7597 174.115 47 174.115 47C174.115 47 186.231 75.7597 186.231 101.573Z" fill="url(#paint5_linear_3_150)"/>
<line x1="461.5" y1="95.8461" x2="461.5" y2="154" stroke="#333333" stroke-width="3"/>
<path d="M469.154 120.382C469.154 137.591 465.538 147.538 461.077 147.538C456.616 147.538 453 137.591 453 120.382C453 103.173 461.077 84 461.077 84C461.077 84 469.154 103.173 469.154 120.382Z" fill="url(#paint6_linear_3_150)"/>
</g>
<path fill-rule="evenodd" clip-rule="evenodd" d="M47.45 83.65C42.2309 83.65 38 79.4191 38 74.2C38 68.9809 42.2309 64.75 47.45 64.75C48.5657 64.75 49.6362 64.9433 50.6299 65.2984C51.1612 56.2079 58.7013 49 67.925 49C75.0022 49 81.0883 53.2435 83.7776 59.3249C85.2088 58.7602 86.7682 58.45 88.4 58.45C95.3588 58.45 101 64.0912 101 71.05C101 78.0088 95.3588 83.65 88.4 83.65H67.925H47.45Z" fill="#F3F4FF" fill-opacity="0.15"/>
<path fill-rule="evenodd" clip-rule="evenodd" d="M456.45 55.65C451.231 55.65 447 51.4191 447 46.2C447 40.9809 451.231 36.75 456.45 36.75C457.566 36.75 458.636 36.9433 459.63 37.2984C460.161 28.2079 467.701 21 476.925 21C484.002 21 490.088 25.2435 492.778 31.3249C494.209 30.7602 495.768 30.45 497.4 30.45C504.359 30.45 510 36.0912 510 43.05C510 50.0088 504.359 55.65 497.4 55.65H476.925H456.45Z" fill="#F3F4FF" fill-opacity="0.15"/>
</g>
<defs>
<linearGradient id="paint0_linear_3_150" x1="268" y1="0" x2="268" y2="216" gradientUnits="userSpaceOnUse">
<stop stop-color="#322055"/>
<stop offset="1" stop-color="#4B42AD"/>
</linearGradient>
<linearGradient id="paint1_linear_3_150" x1="451" y1="143" x2="451" y2="295" gradientUnits="userSpaceOnUse">
<stop stop-color="#322055"/>
<stop offset="1" stop-color="#4B42AD"/>
</linearGradient>
<linearGradient id="paint2_linear_3_150" x1="322.074" y1="167" x2="322.074" y2="322.801" gradientUnits="userSpaceOnUse">
<stop stop-color="#6351D1"/>
<stop offset="0.416667" stop-color="#4E4083"/>
</linearGradient>
<linearGradient id="paint3_linear_3_150" x1="180.75" y1="132.5" x2="180.75" y2="248" gradientUnits="userSpaceOnUse">
<stop stop-color="#322055"/>
<stop offset="1" stop-color="#4B42AD"/>
</linearGradient>
<linearGradient id="paint4_linear_3_150" x1="131" y1="55" x2="131" y2="173" gradientUnits="userSpaceOnUse">
<stop stop-color="#3E163F"/>
<stop offset="0.984375" stop-color="#2F2596"/>
</linearGradient>
<linearGradient id="paint5_linear_3_150" x1="174.115" y1="47" x2="174.115" y2="142.308" gradientUnits="userSpaceOnUse">
<stop stop-color="#3E163F"/>
<stop offset="0.984375" stop-color="#2F2596"/>
</linearGradient>
<linearGradient id="paint6_linear_3_150" x1="461.077" y1="84" x2="461.077" y2="147.538" gradientUnits="userSpaceOnUse">
<stop stop-color="#3E163F"/>
<stop offset="0.984375" stop-color="#2F2596"/>
</linearGradient>
<clipPath id="clip0_3_150">
<rect width="536" height="216" fill="white"/>
</clipPath>
</defs>
</svg>
