<svg width="536" height="216" viewBox="0 0 536 216" fill="none" xmlns="http://www.w3.org/2000/svg">
<g clip-path="url(#clip0_1_2)">
<rect width="536" height="216" fill="url(#paint0_linear_1_2)"/>
<mask id="mask0_1_2" style="mask-type:alpha" maskUnits="userSpaceOnUse" x="0" y="0" width="536" height="216">
<rect width="536" height="216" fill="#D9D9D9"/>
</mask>
<g mask="url(#mask0_1_2)">
<circle cx="352" cy="94" r="50" fill="white" fill-opacity="0.2"/>
<circle cx="352" cy="94" r="62" fill="white" fill-opacity="0.2"/>
<circle cx="352" cy="94" r="74" fill="white" fill-opacity="0.2"/>
<circle cx="352" cy="94" r="32" fill="#F9F486"/>
<path fill-rule="evenodd" clip-rule="evenodd" d="M351.822 54.0004C351.881 54.0001 351.941 54 352 54C352.059 54 352.119 54.0001 352.178 54.0004C353.122 54.0045 353.884 54.7732 353.88 55.7172C353.876 56.6613 353.107 57.4233 352.163 57.4192C352.109 57.4189 352.054 57.4188 352 57.4188C351.946 57.4188 351.891 57.4189 351.837 57.4192C350.893 57.4233 350.124 56.6613 350.12 55.7172C350.116 54.7732 350.878 54.0045 351.822 54.0004ZM334.482 59.8995C334.951 60.7188 334.668 61.7632 333.848 62.2324C333.754 62.2862 333.661 62.3404 333.567 62.3949C332.752 62.8714 331.705 62.5969 331.229 61.7818C330.753 60.9668 331.027 59.9198 331.842 59.4434C331.944 59.3837 332.047 59.3244 332.149 59.2656C332.969 58.7965 334.013 59.0803 334.482 59.8995ZM369.518 59.8995C369.987 59.0803 371.031 58.7965 371.851 59.2656C371.953 59.3244 372.056 59.3837 372.158 59.4434C372.973 59.9198 373.247 60.9668 372.771 61.7818C372.295 62.5969 371.248 62.8714 370.433 62.3949C370.339 62.3404 370.246 62.2862 370.152 62.2324C369.332 61.7632 369.049 60.7188 369.518 59.8995ZM319.782 73.229C320.597 73.7054 320.871 74.7524 320.395 75.5674C320.34 75.6608 320.286 75.7545 320.232 75.8484C319.763 76.6677 318.719 76.9515 317.9 76.4823C317.08 76.0131 316.796 74.9687 317.266 74.1494C317.324 74.0467 317.384 73.9443 317.443 73.8421C317.92 73.0271 318.967 72.7526 319.782 73.229ZM384.218 73.229C385.033 72.7526 386.08 73.0271 386.557 73.8422C386.616 73.9443 386.676 74.0467 386.734 74.1494C387.204 74.9687 386.92 76.0131 386.101 76.4823C385.281 76.9515 384.237 76.6677 383.768 75.8484C383.714 75.7545 383.66 75.6608 383.605 75.5674C383.129 74.7524 383.403 73.7054 384.218 73.229ZM313.717 92.1198C314.661 92.1239 315.423 92.8926 315.419 93.8366C315.419 93.8911 315.419 93.9455 315.419 94C315.419 94.0545 315.419 94.1089 315.419 94.1633C315.423 95.1074 314.661 95.8761 313.717 95.8802C312.773 95.8843 312.005 95.1224 312 94.1783C312 94.1189 312 94.0595 312 94C312 93.9405 312 93.8811 312 93.8217C312.005 92.8777 312.773 92.1157 313.717 92.1198ZM390.283 92.1198C391.227 92.1157 391.995 92.8777 392 93.8217C392 93.8811 392 93.9405 392 94C392 94.0595 392 94.1189 392 94.1783C391.995 95.1224 391.227 95.8843 390.283 95.8802C389.339 95.8761 388.577 95.1074 388.581 94.1634C388.581 94.1089 388.581 94.0545 388.581 94C388.581 93.9455 388.581 93.8911 388.581 93.8367C388.577 92.8926 389.339 92.1239 390.283 92.1198ZM317.9 111.518C318.719 111.049 319.763 111.332 320.232 112.152C320.286 112.246 320.34 112.339 320.395 112.433C320.871 113.248 320.597 114.295 319.782 114.771C318.967 115.247 317.92 114.973 317.443 114.158C317.384 114.056 317.324 113.953 317.266 113.851C316.796 113.031 317.08 111.987 317.9 111.518ZM386.101 111.518C386.92 111.987 387.204 113.031 386.734 113.851C386.676 113.953 386.616 114.056 386.557 114.158C386.08 114.973 385.033 115.247 384.218 114.771C383.403 114.295 383.129 113.248 383.605 112.433C383.66 112.339 383.714 112.246 383.768 112.152C384.237 111.332 385.281 111.049 386.101 111.518ZM331.229 126.218C331.705 125.403 332.752 125.129 333.567 125.605C333.661 125.66 333.754 125.714 333.848 125.768C334.668 126.237 334.951 127.281 334.482 128.101C334.013 128.92 332.969 129.204 332.149 128.734C332.047 128.676 331.944 128.616 331.842 128.557C331.027 128.08 330.753 127.033 331.229 126.218ZM372.771 126.218C373.247 127.033 372.973 128.08 372.158 128.557C372.056 128.616 371.953 128.676 371.851 128.734C371.031 129.204 369.987 128.92 369.518 128.101C369.049 127.281 369.332 126.237 370.152 125.768C370.246 125.714 370.339 125.66 370.433 125.605C371.248 125.129 372.295 125.403 372.771 126.218ZM350.12 132.283C350.124 131.339 350.893 130.577 351.837 130.581C351.891 130.581 351.946 130.581 352 130.581C352.054 130.581 352.109 130.581 352.163 130.581C353.107 130.577 353.876 131.339 353.88 132.283C353.884 133.227 353.122 133.995 352.178 134C352.144 134 352.109 134 352.074 134C352.049 134 352.025 134 352 134C351.941 134 351.881 134 351.822 134C350.878 133.995 350.116 133.227 350.12 132.283Z" fill="#F9F486"/>
<path fill-rule="evenodd" clip-rule="evenodd" d="M348.582 97.8541C348.502 97.5329 348.176 97.3376 347.855 97.4179C347.533 97.4983 347.338 97.824 347.418 98.1455L348 98C347.418 98.1455 347.418 98.1453 347.418 98.1455L347.42 98.1517L347.423 98.1636L347.433 98.204C347.443 98.2381 347.457 98.2861 347.475 98.3462C347.511 98.4661 347.566 98.6346 347.641 98.8357C347.791 99.2358 348.027 99.7745 348.366 100.318C349.035 101.388 350.194 102.6 352 102.6C353.806 102.6 354.965 101.388 355.634 100.318C355.974 99.7745 356.209 99.2358 356.359 98.8357C356.434 98.6346 356.489 98.4661 356.525 98.3462C356.544 98.2861 356.557 98.2381 356.567 98.204L356.577 98.1636L356.581 98.1517L356.582 98.1465C356.582 98.1463 356.582 98.1455 356 98L356.582 98.1465C356.662 97.825 356.467 97.4983 356.146 97.4179C355.824 97.3376 355.499 97.5329 355.418 97.8541M355.418 97.8541L355.417 97.8594L355.41 97.8858C355.403 97.9104 355.392 97.9482 355.377 97.9976C355.347 98.0964 355.3 98.2404 355.235 98.4143C355.104 98.7642 354.902 99.2255 354.616 99.682C354.035 100.612 353.194 101.4 352 101.4C350.806 101.4 349.965 100.612 349.384 99.682C349.099 99.2255 348.896 98.7642 348.765 98.4143C348.7 98.2404 348.653 98.0964 348.623 97.9976C348.608 97.9482 348.597 97.9104 348.591 97.8858L348.583 97.8594L348.582 97.8541C348.582 97.8538 348.582 97.8542 348.582 97.8541" fill="#393939"/>
<circle cx="335.429" cy="93.4286" r="3.42857" fill="#393939"/>
<circle cx="336.457" cy="92.4" r="1.02857" fill="white"/>
<circle cx="368.571" cy="93.4286" r="3.42857" fill="#393939"/>
<circle cx="369.6" cy="92.4" r="1.02857" fill="white"/>
<ellipse cx="451" cy="219" rx="222" ry="76" fill="url(#paint1_linear_1_2)"/>
<path d="M379.907 215.5C398.407 206.5 391.407 198.5 379.907 187C373.664 180.757 364.612 175.082 357.407 171.193C423.407 171.193 452.407 187 464.907 198C476.585 208.277 480.407 226 464.907 238C439.746 257.479 319.407 259.5 291.407 269C269.007 276.6 282.074 304.5 291.407 317.5C251.407 321.5 171.407 327.1 171.407 317.5C171.407 305.5 159.031 281.261 190.407 259.5C221.407 238 361.407 224.5 379.907 215.5Z" fill="url(#paint2_linear_1_2)"/>
<path d="M410.5 212C410.5 240.443 301.04 248 176.5 248C51.9598 248 -49 224.943 -49 196.5C-49 168.057 46.9598 132.5 171.5 132.5C296.04 132.5 410.5 183.557 410.5 212Z" fill="url(#paint3_linear_1_2)"/>
<line x1="130.5" y1="77" x2="130.5" y2="185" stroke="#333333" stroke-width="3"/>
<path d="M146 122.567C146 154.527 139.284 173 131 173C122.716 173 116 154.527 116 122.567C116 90.6072 131 55 131 55C131 55 146 90.6072 146 122.567Z" fill="url(#paint4_linear_1_2)"/>
<line x1="174" y1="64.7692" x2="174" y2="152" stroke="#333333" stroke-width="3"/>
<path d="M186.231 101.573C186.231 127.387 180.807 142.308 174.115 142.308C167.424 142.308 162 127.387 162 101.573C162 75.7597 174.115 47 174.115 47C174.115 47 186.231 75.7597 186.231 101.573Z" fill="url(#paint5_linear_1_2)"/>
<line x1="461.5" y1="95.8462" x2="461.5" y2="154" stroke="#333333" stroke-width="3"/>
<path d="M469.154 120.382C469.154 137.591 465.538 147.538 461.077 147.538C456.616 147.538 453 137.591 453 120.382C453 103.173 461.077 84 461.077 84C461.077 84 469.154 103.173 469.154 120.382Z" fill="url(#paint6_linear_1_2)"/>
</g>
<path fill-rule="evenodd" clip-rule="evenodd" d="M47.45 83.65C42.2309 83.65 38 79.4191 38 74.2C38 68.9809 42.2309 64.75 47.45 64.75C48.5657 64.75 49.6362 64.9433 50.6299 65.2984C51.1612 56.2079 58.7013 49 67.925 49C75.0022 49 81.0883 53.2435 83.7776 59.3249C85.2088 58.7602 86.7682 58.45 88.4 58.45C95.3588 58.45 101 64.0912 101 71.05C101 78.0088 95.3588 83.65 88.4 83.65H67.925H47.45Z" fill="#F3F4FF" fill-opacity="0.3"/>
<path fill-rule="evenodd" clip-rule="evenodd" d="M456.45 55.65C451.231 55.65 447 51.4191 447 46.2C447 40.9809 451.231 36.75 456.45 36.75C457.566 36.75 458.636 36.9433 459.63 37.2984C460.161 28.2079 467.701 21 476.925 21C484.002 21 490.088 25.2435 492.778 31.3249C494.209 30.7602 495.768 30.45 497.4 30.45C504.359 30.45 510 36.0912 510 43.05C510 50.0088 504.359 55.65 497.4 55.65H476.925H456.45Z" fill="#F3F4FF" fill-opacity="0.3"/>
</g>
<defs>
<linearGradient id="paint0_linear_1_2" x1="268" y1="0" x2="268" y2="216" gradientUnits="userSpaceOnUse">
<stop stop-color="#F1A2FA"/>
<stop offset="0.427083" stop-color="#F8D0D0"/>
<stop offset="1" stop-color="#9CB0F4"/>
</linearGradient>
<linearGradient id="paint1_linear_1_2" x1="451" y1="143" x2="451" y2="295" gradientUnits="userSpaceOnUse">
<stop stop-color="#7A92E4"/>
<stop offset="0.25" stop-color="#9CB0F4"/>
<stop offset="1" stop-color="#69C991"/>
</linearGradient>
<linearGradient id="paint2_linear_1_2" x1="300" y1="167" x2="475" y2="374.5" gradientUnits="userSpaceOnUse">
<stop offset="0.0905342" stop-color="#EDECD3"/>
<stop offset="0.46875" stop-color="#F4B4E9"/>
</linearGradient>
<linearGradient id="paint3_linear_1_2" x1="176.5" y1="145" x2="176.5" y2="248" gradientUnits="userSpaceOnUse">
<stop stop-color="#9CB0F4"/>
<stop offset="1" stop-color="#F4B8E6"/>
</linearGradient>
<linearGradient id="paint4_linear_1_2" x1="131" y1="55" x2="131" y2="173" gradientUnits="userSpaceOnUse">
<stop stop-color="#CA84E3"/>
<stop offset="0.46875" stop-color="#E397F2"/>
<stop offset="1" stop-color="#BDCCFF"/>
</linearGradient>
<linearGradient id="paint5_linear_1_2" x1="174.115" y1="47" x2="174.115" y2="142.308" gradientUnits="userSpaceOnUse">
<stop stop-color="#CA84E3"/>
<stop offset="0.46875" stop-color="#E397F2"/>
<stop offset="1" stop-color="#BDCCFF"/>
</linearGradient>
<linearGradient id="paint6_linear_1_2" x1="461.077" y1="84" x2="461.077" y2="147.538" gradientUnits="userSpaceOnUse">
<stop stop-color="#CA84E3"/>
<stop offset="0.46875" stop-color="#E397F2"/>
<stop offset="1" stop-color="#BDCCFF"/>
</linearGradient>
<clipPath id="clip0_1_2">
<rect width="536" height="216" fill="white"/>
</clipPath>
</defs>
</svg>
